<svg xml:space="preserve" style="enable-background:new 0 0 303.188 303.188" viewBox="0 0 303.188 303.188">
  <path d="M219.821 0H32.842v303.188h237.504V50.525z" style="fill:#e4e4e4"/>
  <path d="M227.64 25.263H32.842V0h186.979zM100.128 122.335c3.615 0 6.452-.699 8.511-2.098 2.058-1.398 3.088-3.372 3.088-5.918v-11.976c0-4.37.77-7.639 2.309-9.808 1.541-2.169 4.048-3.748 7.521-4.739 3.474-.99 8.275-1.485 14.406-1.485v13.156c-2.798.094-4.692.307-5.683.636-.989.331-1.783.841-2.381 1.532-.596.692-.895 1.636-.895 2.83v12.778c0 3.553-.888 6.28-2.665 8.181-1.776 1.902-4.66 3.135-8.651 3.701v.566c4.022.628 6.914 1.871 8.675 3.725 1.759 1.855 2.641 4.479 2.641 7.874v13.014c0 1.226.33 2.184.991 2.876.659.691 1.539 1.203 2.639 1.533s2.876.542 5.329.636v13.108c-6.193 0-11.019-.503-14.476-1.508-3.459-1.007-5.949-2.602-7.473-4.786-1.525-2.185-2.287-5.493-2.287-9.926v-11.693c0-2.515-1.054-4.479-3.16-5.894s-4.919-2.123-8.44-2.123v-14.192h.001zM203.06 136.527c-3.489 0-6.287.708-8.393 2.123-2.106 1.415-3.159 3.379-3.159 5.894v11.693c0 4.401-.771 7.701-2.312 9.902-1.54 2.2-4.039 3.803-7.496 4.81-3.458 1.005-8.268 1.508-14.429 1.508v-13.108c3.396-.127 5.737-.589 7.026-1.392 1.287-.801 1.933-2.019 1.933-3.654V141.29c0-3.395.881-6.019 2.641-7.874 1.761-1.854 4.651-3.096 8.676-3.725v-.566c-3.992-.565-6.877-1.799-8.651-3.701-1.776-1.901-2.665-4.628-2.665-8.181v-12.778c0-1.225-.307-2.176-.918-2.852-.613-.676-1.4-1.179-2.359-1.509-.958-.33-2.853-.542-5.682-.636V86.311c6.161 0 10.971.495 14.429 1.485 3.457.991 5.956 2.57 7.496 4.739 1.541 2.169 2.312 5.438 2.312 9.808v11.976c0 2.546 1.021 4.519 3.064 5.918s4.873 2.098 8.487 2.098v14.192z" style="fill:#004a94"/>
  <path d="M116.799 235.835c-3.085 0-5.492 1.264-7.22 3.79-1.729 2.527-2.593 6.011-2.593 10.452 0 9.233 3.512 13.849 10.535 13.849 2.122 0 4.179-.295 6.17-.886a61.918 61.918 0 0 0 6.006-2.133v10.961c-4.004 1.772-8.533 2.658-13.586 2.658-7.242 0-12.794-2.1-16.655-6.301-3.862-4.201-5.793-10.272-5.793-18.214 0-4.966.935-9.331 2.806-13.094s4.562-6.656 8.073-8.68c3.512-2.023 7.641-3.036 12.389-3.036 5.185 0 10.141 1.127 14.866 3.38l-3.971 10.206a44.729 44.729 0 0 0-5.316-2.1c-1.773-.567-3.676-.852-5.711-.852zM170.423 259.3c0 2.976-.754 5.617-2.264 7.925-1.51 2.309-3.688 4.102-6.531 5.382-2.844 1.28-6.18 1.92-10.01 1.92-3.193 0-5.873-.225-8.039-.673s-4.42-1.23-6.761-2.346v-11.552a38.574 38.574 0 0 0 7.712 2.97c2.67.711 5.119 1.067 7.352 1.067 1.924 0 3.336-.333 4.232-1.001.898-.667 1.346-1.526 1.346-2.576 0-.656-.18-1.231-.541-1.723-.361-.492-.941-.99-1.738-1.493-.801-.503-2.928-1.531-6.385-3.085-3.129-1.422-5.475-2.8-7.039-4.135-1.564-1.334-2.723-2.866-3.478-4.595-.755-1.728-1.132-3.774-1.132-6.137 0-4.419 1.608-7.865 4.823-10.337 3.217-2.472 7.637-3.708 13.26-3.708 4.965 0 10.031 1.148 15.193 3.446l-3.971 10.009c-4.484-2.056-8.357-3.085-11.617-3.085-1.686 0-2.91.295-3.676.886s-1.148 1.324-1.148 2.199c0 .941.486 1.784 1.461 2.527.973.744 3.615 2.101 7.926 4.07 4.135 1.859 7.006 3.856 8.613 5.989 1.609 2.132 2.412 4.819 2.412 8.056zM209.214 259.3c0 2.976-.755 5.617-2.265 7.925-1.509 2.309-3.687 4.102-6.53 5.382-2.845 1.28-6.181 1.92-10.01 1.92-3.194 0-5.874-.225-8.04-.673s-4.42-1.23-6.761-2.346v-11.552a38.606 38.606 0 0 0 7.713 2.97c2.669.711 5.119 1.067 7.351 1.067 1.925 0 3.336-.333 4.233-1.001.898-.667 1.346-1.526 1.346-2.576 0-.656-.181-1.231-.541-1.723-.361-.492-.941-.99-1.739-1.493-.8-.503-2.927-1.531-6.384-3.085-3.129-1.422-5.475-2.8-7.039-4.135-1.564-1.334-2.724-2.866-3.479-4.595-.755-1.728-1.132-3.774-1.132-6.137 0-4.419 1.607-7.865 4.823-10.337 3.217-2.472 7.636-3.708 13.259-3.708 4.966 0 10.031 1.148 15.194 3.446l-3.971 10.009c-4.485-2.056-8.357-3.085-11.617-3.085-1.686 0-2.91.295-3.676.886-.767.591-1.148 1.324-1.148 2.199 0 .941.486 1.784 1.46 2.527.974.744 3.615 2.101 7.926 4.07 4.135 1.859 7.007 3.856 8.614 5.989 1.609 2.132 2.413 4.819 2.413 8.056z" style="fill:#a4a9ad"/>
  <path d="M219.821 50.525h50.525L219.821 0z" style="fill:#d1d3d3"/>
</svg>
