<svg version="1.2" xmlns="http://www.w3.org/2000/svg" viewBox="0 0 211 202" width="211" height="202"><style>.s0{fill:#000000}.s1{fill:#8b000f}.s2{fill:#ffffff;stroke:#000000}.s3{fill:#ffcd45}.s4{fill:none;stroke:#000000}.s5{fill:#71a3d9}.s6{fill:#71a340}.s7{fill:#ffffff}</style><path class="s0" d="m211 202h-211v-202h211z" /><path class="s1" d="m115 124c0 2.2-1.8 4-4 4c-2.2 0-4-1.8-4-4c0-2.2 1.8-4 4-4c2.2 0 4 1.8 4 4z" /><path class="s2" d="" /><path class="s3" d="m24.7 50.9l27.3-9.4c1.3-0.4 2.2 1.2 1.3 2.1q-2.4 2.3-4.6 4.8c-6 7.1-10.6 15.1-13.7 23.6c-0.8 1.9-3.4 2-4.3 0.1l-7.9-16.8c-0.8-1.7 0.1-3.8 1.9-4.4z" /><path class="s4" d="" /><path class="s3" d="m156.9 27.1c7.7 14.2-45 44.9-59.9 79.4h-62.5c-0.1-3.4 0.1-6 0.2-7.5c0.3-4.3 2.1-28.2 19.8-48.5q33-37.8 87-29q12.7 0.6 15.4 5.6z" /><path class="s5" d="m131.9 182.2c0.6 0.5 6.4 1.2 5.6 1.3c-2.9 0.3-6 1-17 1c-7.7 0-26.9 0.1-46.6-11c-4.6-2.7-15.3-8.8-24.4-21c-2.7-3.6-5-7.3-6.8-11h54.3c5.6 12.4 17.6 26 34.9 40.7z" /><path class="s6" d="m97 141.5h-54.3c-6.7-13.5-8.1-26.6-8.2-35h62.5c-3.1 7.2-4.6 14.6-3.5 22q0.4 6.3 3.5 13z" /><path class="s5" d="m188.7 154.8c5.9 3.9-26.6 28.7-57 29.4l-2.1-0.7c-15-10.7-26.4-24.5-24.5-24.1l15 1.1c15.4-1 22.4-12 23.4-17.2l21.9 2.3c1.7 7.6 16.6 4.8 23.3 9.2z" /><path class="s0" d="m165.4 145.6l-21.9-2.3c2-6.8 5-26.8 8-27.8c1.4-0.5 8 19 13.9 30.1z" /><path class="s0" d="m102.9 149.8l8.7 3.9l8.6 3.8l-15 22.1l-14.9 22.1l6.3-25.9z" /><path class="s0" d="m144.5 141.5l0.2-1l18.6 2l0.5 1z" /><path fill-rule="evenodd" class="s7" d="m163.6 142l1.1 2.1l-20.8-2.2l0.5-1.9zm-18.5-0.9h0.1z" /><path class="s0" d="m145.4 137.6l0.2-1l15.7 1.7l0.5 1z" /><path class="s7" d="m161.7 137.8l0.9 2.1l-17.8-1.9l0.4-1.9z" /><path class="s0" d="m146.2 133.7l0.2-1l13.1 1.4l0.5 1z" /><path class="s7" d="m159.9 133.6l0.9 2.1l-15.2-1.6l0.4-1.9z" /><path class="s0" d="m147 129.9l0.3-1l10.5 1.1l0.4 1z" /><path class="s7" d="m158.1 129.5l0.9 2.1l-12.6-1.3l0.5-1.9z" /><path class="s0" d="m147.9 126.1l0.2-1l8 0.8l0.4 1.1z" /><path class="s7" d="m156.5 125.5l0.8 2.1l-10-1.1l0.5-1.9z" /><path class="s0" d="m148.9 122.2l0.3-1l5.2 0.5l0.4 1.1z" /><path class="s7" d="m154.7 121.3l0.9 2.1l-7.3-0.8l0.5-1.9z" /><path class="s0" d="m150.2 118.3l0.4-0.9l1.8 0.1l0.5 1.1z" /><path class="s7" d="m152.8 117.1l1 2.1l-4.3-0.5l0.8-1.9z" /></svg>