<svg xmlns="http://www.w3.org/2000/svg" xmlns:xlink="http://www.w3.org/1999/xlink" width="270" height="270" viewBox="0 0 270 270"><defs><filter id="a" x="0" y="0" width="270" height="270" filterUnits="userSpaceOnUse"><feOffset dx="-10" dy="10" input="SourceAlpha"/><feGaussianBlur stdDeviation="7.5" result="b"/><feFlood flood-color="#636060" flood-opacity="0.651"/><feComposite operator="in" in2="b"/><feComposite in="SourceGraphic"/></filter><filter id="c" x="0" y="0" width="270" height="270" filterUnits="userSpaceOnUse"><feOffset dy="3" input="SourceAlpha"/><feGaussianBlur stdDeviation="3" result="d"/><feFlood flood-opacity="0" result="e"/><feComposite operator="out" in="SourceGraphic" in2="d"/><feComposite operator="in" in="e"/><feComposite operator="in" in2="SourceGraphic"/></filter></defs><g transform="translate(32.5 12.5)"><g data-type="innerShadowGroup"><g transform="matrix(1, 0, 0, 1, -32.5, -12.5)" filter="url(#a)"><path d="M112.5,0A112.5,112.5,0,1,1,0,112.5,112.5,112.5,0,0,1,112.5,0Z" transform="translate(32.5 12.5)" fill="#22273a"/></g><g transform="matrix(1, 0, 0, 1, -32.5, -12.5)" filter="url(#c)"><path d="M112.5,0A112.5,112.5,0,1,1,0,112.5,112.5,112.5,0,0,1,112.5,0Z" transform="translate(32.5 12.5)" fill="#fff"/></g></g><path d="M226.833,248l18.232,36.3h-6.289l-13.168-27.179h-.253L210.33,284.3H204L224.342,248Z" transform="translate(-112.164 -136.445)" fill="#f5f2f2"/><path d="M334.059,155.509l-24.94,84.1q0,1.037-1.21,1.037l-26.027.691a.993.993,0,0,1-1.124-1.124v-1.469a.993.993,0,0,1,1.124-1.124H292.86L317.8,158.88H306.822a.993.993,0,0,1-1.124-1.124v-1.469a.993.993,0,0,1,1.124-1.124l26.027-.691Q334.059,154.472,334.059,155.509Z" transform="translate(-154.368 -85.021)" fill="#f5f2f2"/><path d="M100,155.509l24.94,84.1q0,1.037,1.21,1.037l26.027.691a.993.993,0,0,0,1.124-1.124v-1.469a.993.993,0,0,0-1.124-1.124H141.2L116.26,158.88h10.977a.993.993,0,0,0,1.124-1.124v-1.469a.993.993,0,0,0-1.124-1.124l-26.027-.691Q100,154.472,100,155.509Z" transform="translate(-54.982 -85.021)" fill="#f5f2f2"/></g></svg>