<svg xmlns="http://www.w3.org/2000/svg" width="227" height="227" viewBox="0 0 227 227">
  <g id="DW-logo-outline" transform="translate(1 1)">
    <path id="Path_36" data-name="Path 36" d="M112.5,0A112.5,112.5,0,1,1,0,112.5,112.5,112.5,0,0,1,112.5,0Z" fill="#22273a" stroke="#f8f8f8" stroke-width="2"/>
    <path id="Path_1" data-name="Path 1" d="M226.833,248l18.232,36.3h-6.289l-13.168-27.179h-.253L210.33,284.3H204L224.342,248Z" transform="translate(-112.164 -136.445)" fill="#f5f2f2"/>
    <path id="Path_2" data-name="Path 2" d="M334.059,155.509l-24.94,84.1q0,1.037-1.21,1.037l-26.027.691a.993.993,0,0,1-1.124-1.124v-1.469a.993.993,0,0,1,1.124-1.124H292.86L317.8,158.88H306.822a.993.993,0,0,1-1.124-1.124v-1.469a.993.993,0,0,1,1.124-1.124l26.027-.691Q334.059,154.472,334.059,155.509Z" transform="translate(-154.368 -85.021)" fill="#f8f8f8"/>
    <path id="Path_3" data-name="Path 3" d="M100,155.509l24.94,84.1q0,1.037,1.21,1.037l26.027.691a.993.993,0,0,0,1.124-1.124v-1.469a.993.993,0,0,0-1.124-1.124H141.2L116.26,158.88h10.977a.993.993,0,0,0,1.124-1.124v-1.469a.993.993,0,0,0-1.124-1.124l-26.027-.691Q100,154.472,100,155.509Z" transform="translate(-54.982 -85.021)" fill="#f5f2f2"/>
  </g>
</svg>
