<svg xmlns="http://www.w3.org/2000/svg" viewBox="0 0 195.025 146.257">
  <defs>
    <style>
      .cls-1 {
        fill: #22273a;
      }
    </style>
  </defs>
  <g id="sass-svgrepo-com" transform="translate(-0.454 -0.454)">
    <path id="Path_4" data-name="Path 4" class="cls-1" d="M168.386,84.532a40.367,40.367,0,0,0-17.668,4.1c-1.817-3.6-3.634-6.8-3.954-9.155-.357-2.743-.784-4.417-.357-7.694s2.351-7.944,2.315-8.3-.427-2.03-4.346-2.066-7.3.748-7.694,1.781A43,43,0,0,0,135.043,69c-.677,3.562-7.836,16.279-11.933,22.941-1.318-2.6-2.458-4.881-2.707-6.7-.356-2.742-.784-4.417-.356-7.694s2.351-7.944,2.315-8.3-.428-2.03-4.346-2.066-7.3.748-7.694,1.781-.82,3.455-1.639,5.806S98.353,98.353,95.859,103.838c-1.283,2.814-2.387,5.059-3.17,6.59h0a1.636,1.636,0,0,1-.143.285c-.677,1.318-1.068,2.031-1.068,2.031v.035c-.535.962-1.1,1.853-1.39,1.853-.214,0-.606-2.564.071-6.056,1.425-7.373,4.809-18.844,4.774-19.236,0-.214.641-2.209-2.209-3.242a3.538,3.538,0,0,0-4.026.677c-.249,0-.427.606-.427.606s3.1-12.9-5.914-12.9c-5.628,0-13.394,6.163-17.241,11.719-2.422,1.319-7.588,4.132-13.109,7.16-2.1,1.176-4.275,2.351-6.305,3.455-.142-.142-.285-.321-.427-.463C34.376,84.71,14.214,76.481,15.068,60.843c.321-5.7,2.28-20.661,38.721-38.828,29.993-14.783,53.861-10.687,57.993-1.6C117.7,33.378,98.994,57.459,68,60.95,56.176,62.268,49.978,57.708,48.411,56c-1.639-1.781-1.888-1.888-2.494-1.532-1,.534-.356,2.137,0,3.063.926,2.422,4.738,6.7,11.185,8.8,5.7,1.852,19.556,2.885,36.334-3.6,18.773-7.267,33.449-27.465,29.139-44.385C118.266,1.176,89.768-4.488,62.8,5.094c-16.03,5.7-33.413,14.676-45.917,26.36C2.031,45.347-.32,57.423.642,62.481,4.1,80.435,28.854,92.119,38.757,100.775c-.5.285-.962.535-1.354.748-4.951,2.458-23.831,12.325-28.533,22.763-5.343,11.826.855,20.3,4.951,21.444,12.717,3.527,25.79-2.814,32.808-13.287s6.163-24.08,2.921-30.314a.746.746,0,0,0-.143-.214c1.282-.748,2.6-1.532,3.883-2.28,2.529-1.5,5.023-2.885,7.16-4.025a46.941,46.941,0,0,0-2.529,12.966c-.534,6.7,2.209,15.389,5.806,18.809a6.418,6.418,0,0,0,4.7,1.532c4.2,0,6.091-3.491,8.193-7.623,2.564-5.058,4.88-10.936,4.88-10.936s-2.885,15.887,4.952,15.887c2.849,0,5.735-3.705,7.017-5.593v.035s.071-.107.214-.356c.285-.463.463-.748.463-.748v-.071c1.14-2,3.7-6.519,7.516-14.036,4.916-9.689,9.654-21.8,9.654-21.8a61.843,61.843,0,0,0,1.888,7.872c.855,2.885,2.636,6.056,4.061,9.119-1.14,1.6-1.853,2.493-1.853,2.493l.036.036c-.927,1.211-1.924,2.529-3.028,3.811-3.883,4.631-8.513,9.939-9.155,11.47-.748,1.817-.57,3.135.855,4.2,1.034.784,2.885.89,4.774.784a21.933,21.933,0,0,0,7.16-1.639,24.022,24.022,0,0,0,6.163-3.242,13.79,13.79,0,0,0,5.914-12.147,24.53,24.53,0,0,0-2.244-8.585c.357-.5.677-1,1.034-1.5a163.256,163.256,0,0,0,10.687-18.453,61.83,61.83,0,0,0,1.888,7.873,52.792,52.792,0,0,0,3.455,7.836c-5.664,4.6-9.155,9.939-10.4,13.43-2.244,6.483-.5,9.4,2.814,10.081,1.5.321,3.633-.392,5.2-1.069a23.687,23.687,0,0,0,6.59-3.383c3.811-2.814,7.48-6.733,7.266-12.04a22.763,22.763,0,0,0-1.639-7.125c4.809-1.995,11.007-3.1,18.916-2.173,16.956,1.995,20.3,12.575,19.663,17.027s-4.2,6.875-5.379,7.623-1.568,1-1.461,1.532c.142.784.712.749,1.71.606,1.39-.249,8.906-3.6,9.226-11.791.535-10.473-9.44-21.907-27.073-21.8Zm-130.8,44.1c-5.628,6.127-13.465,8.442-16.849,6.483-3.633-2.1-2.209-11.15,4.7-17.633a89.76,89.76,0,0,1,13.216-9.868c.819-.5,2.03-1.211,3.491-2.1.249-.143.392-.214.392-.214h0l.855-.534a24.33,24.33,0,0,1-5.806,23.867Zm40.966-27.857c-1.959,4.773-6.056,16.992-8.549,16.315-2.137-.57-3.455-9.832-.427-18.987a43.116,43.116,0,0,1,6.661-12.218c3.063-3.42,6.448-4.56,7.267-3.17,1.034,1.817-3.74,15.068-4.951,18.06Zm33.805,16.172c-.82.428-1.6.713-1.959.5-.249-.143.357-.713.357-.713s4.239-4.559,5.913-6.626c.962-1.211,2.1-2.636,3.313-4.239v.463c0,5.451-5.273,9.12-7.623,10.616ZM138.427,111c-.606-.428-.5-1.853,1.532-6.305a23.739,23.739,0,0,1,5.807-7.48,10.083,10.083,0,0,1,.57,3.277c-.036,6.875-4.951,9.44-7.908,10.509Z" transform="translate(0 0)"/>
  </g>
</svg>
