<svg xmlns="http://www.w3.org/2000/svg" xmlns:xlink="http://www.w3.org/1999/xlink" width="132" height="371" viewBox="0 0 132 371">
  <defs>
    <style>
      .cls-1 {
        fill: #22273a;
      }

      .cls-2 {
        clip-path: url(#clip-path);
      }
    </style>
    <clipPath id="clip-path">
      <rect id="Rectangle_15" data-name="Rectangle 15" class="cls-1" width="132" height="371" transform="translate(-95 522.951)"/>
    </clipPath>
  </defs>
  <g id="Mask_Group_2" data-name="Mask Group 2" class="cls-2" transform="translate(95 -522.951)">
    <path id="github-svgrepo-com" class="cls-1" d="M65.854,25.829A65.867,65.867,0,0,0,45.015,154.174c3.305.621,4.5-1.416,4.5-3.177,0-1.564-.037-5.7-.062-11.191-18.328,3.968-22.189-8.853-22.189-8.853-3-7.59-7.33-9.627-7.33-9.627-5.96-4.071.473-3.984.473-3.984,6.6.449,10.076,6.771,10.076,6.771,5.873,10.076,15.41,7.162,19.184,5.466.576-4.243,2.293-7.162,4.161-8.787-14.62-1.65-29.992-7.31-29.992-32.544A25.438,25.438,0,0,1,30.606,70.56c-.729-1.65-2.959-8.359.58-17.431,0,0,5.511-1.757,18.11,6.754a61.977,61.977,0,0,1,32.927,0c12.525-8.512,18.032-6.754,18.032-6.754,3.536,9.071,1.3,15.776.663,17.431a25.6,25.6,0,0,1,6.729,17.686c0,25.292-15.393,30.869-30.03,32.478,2.288,1.972,4.433,6.026,4.433,12.179,0,8.808-.082,15.9-.082,18.048,0,1.712,1.152,3.77,4.544,3.107A65.769,65.769,0,0,0,65.846,25.825Z" transform="translate(-95 618.4)"/>
  </g>
</svg>
